<svg xmlns="http://www.w3.org/2000/svg" xmlns:xlink="http://www.w3.org/1999/xlink" viewBox="0 0 576 144"><defs><style>.cls-1{fill:url(#linear-gradient);}</style><linearGradient id="linear-gradient" x1="288" y1="126" x2="288" y2="18.83" gradientUnits="userSpaceOnUse"><stop offset="0" stop-color="#fff763"/><stop offset="1" stop-color="#ffa691"/></linearGradient></defs><title>Asset 4</title><g id="Layer_2" data-name="Layer 2"><g id="GameBros"><rect width="576" height="144" rx="10" ry="10"/><rect class="cls-1" x="18" y="18" width="540" height="108"/><g id="Game"><path d="M62.75,57.5H84.5V43H62.75a29,29,0,0,0,0,58H84.5V72H70V86.5H62.75a14.5,14.5,0,0,1,0-29Z"/><path d="M135.25,101h14.5l-14.5-43.5L130.42,43H111.08l-4.83,14.5L91.75,101h14.5l2.42-7.25h24.16ZM113.5,79.25l7.25-21.75L128,79.25Z"/><polygon points="200.5 43 186 72 171.5 43 157 43 157 101 171.5 101 171.5 72 186 101 200.5 72 200.5 101 215 101 215 43 200.5 43"/><polygon points="273 57.5 273 43 236.75 43 222.25 43 222.25 101 236.75 101 273 101 273 86.5 236.75 86.5 236.75 79.25 265.75 79.25 265.75 64.75 236.75 64.75 236.75 57.5 273 57.5"/></g><g id="Bros"><rect x="375.5" y="57.5" width="18.13" height="7.25"/><rect x="317.5" y="57.5" width="18.13" height="7.25"/><rect x="440.75" y="57.5" width="14.5" height="29"/><rect x="317.5" y="79.25" width="18.13" height="7.25"/><path d="M288,9V135H567V9Zm65.75,73.88A18.54,18.54,0,0,1,339.25,101H303V43h36.25c8.27,1.34,14.5,7.49,14.5,14.5,0,4.56-2.63,8.62-6.74,11.28A18.08,18.08,0,0,1,353.75,82.88Zm58,18.12h-14.5c0-11.79-6.64-21.75-14.5-21.75H375.5V101H361V43h32.63a18.13,18.13,0,0,1,10.18,33.12A41.31,41.31,0,0,1,411.75,101ZM448,101a29,29,0,1,1,29-29A29,29,0,0,1,448,101Zm57.1-38.62,14.43,5.77a16.93,16.93,0,0,1,10.43,19A16.58,16.58,0,0,1,513.61,101H484.25l7.25-14.5h21.92a2.2,2.2,0,0,0,2.28-2,2.37,2.37,0,0,0-1.55-2.87l-14.43-5.77a16.93,16.93,0,0,1-10.43-19A16.58,16.58,0,0,1,505.64,43H535l-7.25,14.5H505.83a2.2,2.2,0,0,0-2.28,2A2.37,2.37,0,0,0,505.1,62.38Z"/></g></g></g></svg>