<svg xmlns="http://www.w3.org/2000/svg" xmlns:xlink="http://www.w3.org/1999/xlink" viewBox="0 0 144 144"><defs><style>.cls-1{fill:url(#linear-gradient);}</style><linearGradient id="linear-gradient" x1="72" y1="135" x2="72" y2="9.97" gradientUnits="userSpaceOnUse"><stop offset="0" stop-color="#fff763"/><stop offset="1" stop-color="#ffa691"/></linearGradient></defs><title>Asset 6</title><g id="Layer_2" data-name="Layer 2"><g id="GameBros"><rect width="144" height="144" rx="5" ry="5"/><rect class="cls-1" x="9" y="9" width="126" height="126"/><g id="GB"><path d="M47,59.5H68.75V45H47a29,29,0,0,0,0,58H68.75V74H54.25V88.5H47a14.5,14.5,0,0,1,0-29Z"/><path d="M119.26,70.78c4.11-2.66,6.74-6.72,6.74-11.28,0-7-6.23-13.16-14.5-14.5H75.25v58H111.5A18.54,18.54,0,0,0,126,84.88,18.08,18.08,0,0,0,119.26,70.78ZM107.88,88.5H89.75V81.25h18.13Zm0-21.75H89.75V59.5h18.13Z"/></g></g></g></svg>